<svg xmlns="http://www.w3.org/2000/svg" viewBox="0 0 53.505 53.505" xmlns:v="https://vecta.io/nano"><path d="M6.976 49.565l-6.976-3v-46h6.976z" fill="#436b1c"/><path d="M24.53 46.934c2.147-2.962 5.65-9.998 7.765-12.928 1.606-2.225 3.638-3.38 5.706-3.438V.565H7.007v49h16.385c.067-.787.45-1.682 1.137-2.63z" fill="#88c057"/><path d="M30 32.565H15a1 1 0 0 1 0-2h15a1 1 0 0 1 0 2zm-2-3H18a1 1 0 1 1 0-2h10a1 1 0 1 1 0 2zm0 6H18a1 1 0 1 1 0-2h10a1 1 0 1 1 0 2zm-8-11.772h-3.658C13.392 23.793 11 21.4 11 18.45v-3.658h3.658c2.95 0 5.342 2.392 5.342 5.342v3.658zm4 0h3.658c2.95 0 5.342-2.392 5.342-5.342v-3.658h-3.658c-2.95 0-5.342 2.392-5.342 5.342v3.658zm-2.008-4.5l2.587-2.587c2.086-2.086 2.086-5.468 0-7.554l-2.587-2.587-2.587 2.587c-2.086 2.086-2.086 5.468 0 7.554l2.587 2.587z" fill="#fff"/><path d="M46.42 52.94H27.64c-4.89 0-5.9-2.62-3.577-5.823 2.22-3.063 5.842-10.338 8.03-13.37 3.326-4.608 8.415-4.776 12.044-.297 2.097 2.59 5.748 9.375 7.916 12.06 3.306 4.09.775 7.43-5.632 7.43z" fill="#faf5e5"/><g fill="#efe7d0"><circle cx="46" cy="46.565" r="1"/><circle cx="50" cy="46.565" r="1"/><circle cx="44" cy="43.565" r="1"/><circle cx="48" cy="43.565" r="1"/><circle cx="42" cy="40.565" r="1"/><circle cx="46" cy="40.565" r="1"/><circle cx="40" cy="37.565" r="1"/><circle cx="44" cy="37.565" r="1"/><circle cx="38" cy="34.565" r="1"/><circle cx="42" cy="34.565" r="1"/><circle cx="48" cy="49.565" r="1"/><circle cx="52" cy="49.565" r="1"/><circle cx="26" cy="46.565" r="1"/><circle cx="28" cy="43.565" r="1"/><circle cx="30" cy="40.565" r="1"/><circle cx="32" cy="37.565" r="1"/><circle cx="34" cy="34.565" r="1"/><circle cx="24" cy="49.565" r="1"/><circle cx="44" cy="49.565" r="1"/><circle cx="42" cy="46.565" r="1"/><circle cx="40" cy="43.565" r="1"/><circle cx="38" cy="40.565" r="1"/><circle cx="36" cy="37.565" r="1"/><circle cx="38" cy="46.565" r="1"/><circle cx="36" cy="43.565" r="1"/><circle cx="34" cy="40.565" r="1"/><circle cx="40" cy="49.565" r="1"/><circle cx="36" cy="49.565" r="1"/><circle cx="34" cy="46.565" r="1"/><circle cx="32" cy="43.565" r="1"/><circle cx="30" cy="46.565" r="1"/><circle cx="32" cy="49.565" r="1"/><circle cx="28" cy="49.565" r="1"/></g></svg>