<svg xmlns="http://www.w3.org/2000/svg" viewBox="0 0 512 512" xmlns:v="https://vecta.io/nano"><path d="M70.2 133.553s29.192 22.538 60.058 12.225 40.648-45.872 40.648-45.872-29.192-22.538-60.058-12.225S70.2 133.553 70.2 133.553z" fill="#c3ea21"/><path d="M70.2 133.553s29.192 22.538 60.058 12.225 40.648-45.872 40.648-45.872L70.2 133.553z" fill="#8adb53"/><path d="M70.2 69.95h30V262.8h-30z" fill="#4fc16e"/><path d="M387.07 256.06v45.07l-124.928-45.07v45.07l-135.43-48.86v238.25H512v-177z" fill="#a9a8ae"/><path d="M149.474 490.52H20.927l17.026-294.904h94.495z" fill="#ebebec"/><path d="M149.474 490.52H85.2V195.616h47.248z" fill="#cacacd"/><path d="M135.72 252.27H34.682l3.27-56.654h94.495z" fill="#c3ea21"/><path d="M135.72 252.27H85.2v-56.654h47.248z" fill="#8adb53"/><path d="M294.1 387h61v30h-61zm-103.2 0h61v30h-61zm206.4 0h61v30h-61z" fill="#bce4f9"/><path d="M100.706 70.053S71.514 92.59 40.648 82.278 0 36.406 0 36.406 29.192 13.868 60.058 24.18s40.648 45.872 40.648 45.872z" fill="#c3ea21"/><path d="M100.706 70.053S71.514 92.59 40.648 82.278 0 36.406 0 36.406l100.706 33.647z" fill="#8adb53"/></svg>