<svg xmlns="http://www.w3.org/2000/svg" xmlns:xlink="http://www.w3.org/1999/xlink" viewBox="0 0 841.89 208.49" xmlns:v="https://vecta.io/nano"><path fill="#006d2c" d="M26.79 177.34s-59.63-109.09-.96-145.13L33.79 179l-7-1.66"/><path fill="#b3dc10" d="M139.9 37.34l52.2 2.44 2.21 21.01-54.6 1.48.19-24.93"/><path fill="#e2000a" d="M140.15 3.94C169.57 0 186.98 0 186.98 0s1.68 11.16 3.76 28.24l-50.76-2.38.17-21.92"/><path fill="#66b821" d="M139.53 85.89l.09-12.14 55.74-1.52 1.33 16.87-57.16-3.21"/><path fill="#005f27" d="M76.02 16.02c19.69-4.73 37.43-8.07 52.65-10.42l-.61 79.65-49.93-2.8-2.11-66.43"/><path fill="#80c41b" d="M80.19 147.01L78.5 93.96l118.93 6.67c.66 11.7 1.07 23.41 1.07 34.5 0 1.31-.04 2.58-.12 3.83l-118.19 8.05"/><path fill="#99cf16" d="M44.3,160.95l152.06-10.35c-15.41,51.21-110.18,38.74-150.95,30.83L44.3,160.95"/><path fill="#33a02c" d="M37.02 26.8l5.24-1.75c7.67-2.26 15.14-4.31 22.38-6.19l4.1 128.92-25.05 1.71L37.02 26.8"/><g fill="#ea0d0a"><path d="M300.33 155.18v-51.36h25.91V87.84h-25.91V53.12h26.25V38.07h-85.33v117.11h59.08M644.9 38.07h85.33v15.05h-26.25v35.65h25.92v15.8h-25.92v35.65h26.25v15.05H644.9V38.07m177.25 117.11h-58.86l-.22-102.06h-19.52V38.07h98.34v15.05h-19.52v102.06h-.22m-317.77.09v-51.09l30.71 39.18 30.65-39.17v51.08h58.13V37.59H572.9l-20.16 27.36-20.16-27.36h-46.93v117.68h18.73"/><path d="M334.59 95.75c0-33.37 30.52-60.42 68.18-60.42 37.65 0 68.17 27.05 68.17 60.42s-30.53 60.42-68.17 60.42c-37.66 0-68.18-27.05-68.18-60.42m77.36 29.59V65.28c0-6.76-.59-14.83-9.11-14.83-8.23 0-9.25 8.08-9.25 14.83v60.07c0 6.31 1.03 15.72 9.4 15.72 8.37-.01 8.96-9.41 8.96-15.73z"/></g><path d="M253.9 189.95v-3.17l11.44-.02v10.02c-1.76 1.4-3.57 2.45-5.44 3.16a16.04 16.04 0 0 1-5.75 1.06c-2.65 0-5.07-.57-7.23-1.71-2.17-1.14-3.8-2.78-4.91-4.93s-1.66-4.55-1.66-7.2c0-2.63.55-5.08 1.65-7.36s2.68-3.97 4.75-5.08c2.06-1.1 4.44-1.66 7.13-1.66 1.95 0 3.72.32 5.3.95s2.82 1.51 3.71 2.65c.9 1.13 1.58 2.6 2.05 4.42l-3.22.88c-.41-1.38-.91-2.46-1.51-3.24-.6-.79-1.46-1.42-2.58-1.89s-2.36-.71-3.72-.71c-1.63 0-3.05.25-4.24.75s-2.15 1.15-2.88 1.96-1.3 1.7-1.7 2.67c-.69 1.67-1.03 3.48-1.03 5.44 0 2.41.42 4.42 1.24 6.04.83 1.62 2.04 2.83 3.62 3.61 1.58.79 3.27 1.18 5.05 1.18 1.55 0 3.06-.3 4.53-.89 1.47-.6 2.59-1.23 3.35-1.91v-5.03h-7.95zm18.67 10.6v-19.57h2.99v2.97c.76-1.39 1.46-2.3 2.11-2.75.64-.44 1.35-.66 2.13-.66 1.12 0 2.25.36 3.41 1.07l-1.14 3.08c-.81-.48-1.62-.72-2.43-.72-.73 0-1.38.22-1.95.65-.58.44-.99 1.04-1.23 1.82-.37 1.18-.55 2.47-.55 3.87v10.25h-3.34zm13.78-9.79c0-3.62 1.01-6.31 3.02-8.05 1.68-1.45 3.73-2.17 6.15-2.17 2.69 0 4.89.88 6.6 2.64s2.56 4.2 2.56 7.31c0 2.52-.38 4.5-1.13 5.94-.76 1.44-1.86 2.57-3.3 3.36-1.44.8-3.02 1.2-4.73 1.2-2.74 0-4.95-.88-6.64-2.63-1.68-1.76-2.53-4.3-2.53-7.6zm3.41 0c0 2.51.55 4.38 1.64 5.63a5.24 5.24 0 0 0 4.13 1.87c1.65 0 3.02-.63 4.11-1.88s1.64-3.16 1.64-5.73c0-2.42-.55-4.25-1.65-5.5s-2.47-1.87-4.1-1.87c-1.66 0-3.03.62-4.13 1.86-1.09 1.24-1.64 3.12-1.64 5.62zm24.84 9.79l-5.99-19.57h3.43l3.11 11.3 1.16 4.2 1.01-4.04 3.11-11.46h3.41l2.93 11.35.98 3.74 1.12-3.78 3.35-11.31h3.22l-6.12 19.57h-3.45l-3.11-11.72-.76-3.34-3.96 15.06h-3.44zm26.08-23.2v-3.82H344v3.82h-3.32zm0 23.2v-19.57H344v19.57h-3.32zm10.78 0v-19.57h2.98v2.78c1.44-2.15 3.51-3.22 6.23-3.22 1.18 0 2.26.21 3.25.64.99.42 1.73.98 2.22 1.67s.83 1.5 1.03 2.45c.12.62.18 1.69.18 3.23v12.03h-3.32v-11.9c0-1.35-.13-2.36-.39-3.03s-.72-1.2-1.37-1.6c-.66-.4-1.43-.6-2.31-.6-1.41 0-2.63.45-3.66 1.35s-1.54 2.6-1.54 5.1v10.69h-3.3zm22.8 1.62l3.22.48c.14.99.51 1.72 1.12 2.18.82.61 1.95.92 3.37.92 1.54 0 2.72-.31 3.56-.92.84-.62 1.4-1.48 1.7-2.58.17-.68.25-2.1.24-4.26-1.45 1.71-3.26 2.56-5.42 2.56-2.69 0-4.77-.97-6.25-2.91-1.47-1.94-2.21-4.27-2.21-6.98 0-1.87.34-3.59 1.01-5.17.68-1.58 1.66-2.8 2.94-3.66s2.79-1.29 4.52-1.29c2.31 0 4.21.93 5.71 2.8v-2.36h3.06v16.92c0 3.05-.31 5.21-.93 6.48s-1.6 2.27-2.95 3.01-3 1.1-4.97 1.1c-2.33 0-4.22-.52-5.66-1.57-1.42-1.06-2.11-2.64-2.06-4.75zm2.75-11.76c0 2.57.51 4.44 1.53 5.62s2.3 1.77 3.83 1.77c1.52 0 2.8-.59 3.83-1.76s1.55-3.01 1.55-5.52c0-2.4-.53-4.2-1.59-5.42s-2.34-1.82-3.84-1.82c-1.47 0-2.73.6-3.76 1.8-1.04 1.19-1.55 2.97-1.55 5.33zm34.66 10.14v-27.02h19.53v3.19h-15.96v8.27h14.95v3.17h-14.95v9.2h16.58v3.19h-20.15zm39.57 7.5v-9.58c-.52.72-1.24 1.33-2.17 1.81s-1.91.72-2.96.72c-2.32 0-4.32-.93-6-2.78-1.68-1.86-2.51-4.4-2.51-7.63 0-1.96.34-3.73 1.02-5.29s1.67-2.74 2.97-3.55a7.96 7.96 0 0 1 4.26-1.21c2.42 0 4.32 1.02 5.71 3.06v-2.62h2.99v27.07h-3.31zm-10.23-17.35c0 2.52.53 4.41 1.58 5.67 1.06 1.26 2.32 1.89 3.8 1.89 1.41 0 2.63-.6 3.65-1.8s1.53-3.02 1.53-5.46c0-2.6-.54-4.56-1.61-5.88-1.07-1.31-2.34-1.97-3.79-1.97-1.44 0-2.66.61-3.66 1.83-1 1.23-1.5 3.13-1.5 5.72zm33.98 9.85v-2.87c-1.52 2.21-3.59 3.32-6.21 3.32-1.16 0-2.23-.22-3.23-.66s-1.74-1-2.23-1.67-.83-1.49-1.02-2.46c-.14-.65-.2-1.68-.2-3.1v-12.12h3.32v10.85c0 1.73.07 2.9.2 3.5.21.87.65 1.56 1.33 2.05.68.5 1.51.75 2.51.75s1.93-.26 2.8-.76c.87-.51 1.49-1.2 1.85-2.08s.54-2.15.54-3.82V181h3.32v19.57h-2.98zm10.6-23.2v-3.82h3.32v3.82h-3.32zm0 23.2v-19.57h3.32v19.57h-3.32zm10.78 7.5v-27.07h3.02v2.54c.71-.99 1.52-1.74 2.41-2.24.9-.5 1.99-.75 3.26-.75 1.67 0 3.14.43 4.42 1.29s2.24 2.07 2.89 3.64.98 3.28.98 5.15c0 2-.36 3.81-1.08 5.41s-1.76 2.83-3.13 3.69c-1.37.85-2.81 1.28-4.32 1.28-1.1 0-2.1-.23-2.98-.7s-1.6-1.06-2.17-1.77v9.53h-3.3zm3.01-17.18c0 2.52.51 4.38 1.53 5.58 1.02 1.21 2.26 1.81 3.71 1.81 1.47 0 2.74-.62 3.79-1.87s1.57-3.18 1.57-5.8c0-2.49-.51-4.36-1.54-5.6s-2.25-1.86-3.68-1.86c-1.41 0-2.66.66-3.75 1.98s-1.63 3.24-1.63 5.76zm20.4 9.68v-19.57h2.97v2.75a6.88 6.88 0 0 1 2.45-2.31c1.02-.58 2.18-.87 3.48-.87 1.45 0 2.64.3 3.57.9s1.58 1.44 1.96 2.52c1.55-2.29 3.56-3.43 6.04-3.43 1.94 0 3.43.54 4.48 1.61 1.04 1.07 1.57 2.73 1.57 4.97v13.43H543v-12.33c0-1.33-.11-2.28-.32-2.87-.21-.58-.6-1.05-1.17-1.41s-1.23-.53-1.99-.53c-1.38 0-2.52.46-3.43 1.37s-1.36 2.38-1.36 4.4v11.37h-3.32v-12.72c0-1.47-.27-2.58-.81-3.32s-1.43-1.1-2.65-1.1a4.84 4.84 0 0 0-2.59.74c-.79.49-1.37 1.21-1.72 2.16-.36.95-.54 2.31-.54 4.09v10.15h-3.32z"/><use xlink:href="#B"/><use xlink:href="#C"/><path d="M607.68 197.58l.48 2.93c-.93.2-1.77.29-2.51.29-1.21 0-2.14-.19-2.8-.57s-1.13-.88-1.4-1.5-.41-1.93-.41-3.92v-11.26h-2.43v-2.58h2.43v-4.85l3.3-1.99v6.84h3.33v2.58h-3.33V195c0 .95.06 1.55.17 1.82.12.27.31.49.57.64.26.16.64.24 1.13.24.39.01.87-.03 1.47-.12zm17.23-2.88l3.28-.52c.18 1.32.7 2.32 1.54 3.02s2.02 1.05 3.53 1.05c1.52 0 2.65-.31 3.39-.93s1.11-1.35 1.11-2.18c0-.75-.33-1.34-.98-1.77-.45-.29-1.58-.67-3.39-1.12-2.43-.61-4.12-1.15-5.06-1.59-.94-.45-1.65-1.07-2.14-1.86s-.73-1.67-.73-2.63c0-.87.2-1.68.6-2.42s.94-1.36 1.63-1.85c.51-.38 1.22-.7 2.11-.97.89-.26 1.85-.4 2.87-.4 1.54 0 2.88.22 4.04.66s2.02 1.04 2.57 1.8.93 1.76 1.14 3.03l-3.24.44c-.15-1.01-.57-1.79-1.28-2.36s-1.7-.85-2.99-.85c-1.52 0-2.61.25-3.26.76-.65.5-.98 1.09-.98 1.77 0 .43.14.82.41 1.16.27.36.69.65 1.27.88.33.12 1.31.41 2.93.85l4.91 1.54c.93.4 1.65.98 2.18 1.74s.79 1.71.79 2.84c0 1.11-.32 2.15-.97 3.12-.65.98-1.58 1.73-2.79 2.27-1.22.54-2.59.8-4.13.8-2.54 0-4.48-.53-5.82-1.58-1.32-1.05-2.17-2.62-2.54-4.7zm22.64-17.35v-3.82h3.32v3.82h-3.32zm0 23.2v-19.57h3.32v19.57h-3.32z"/><use xlink:href="#C" x="81.3"/><path d="M694.5 193.38l3.26.42c-.36 2.25-1.27 4.01-2.74 5.28s-3.27 1.91-5.41 1.91c-2.68 0-4.83-.88-6.46-2.62-1.63-1.75-2.44-4.26-2.44-7.53 0-2.11.35-3.96 1.05-5.55.7-1.58 1.77-2.77 3.2-3.57 1.43-.79 2.99-1.19 4.67-1.19 2.13 0 3.86.54 5.21 1.61s2.22 2.6 2.6 4.58l-3.22.5c-.31-1.31-.85-2.3-1.63-2.97-.78-.66-1.72-.99-2.83-.99-1.67 0-3.03.6-4.07 1.8s-1.57 3.09-1.57 5.68c0 2.63.5 4.54 1.51 5.73s2.32 1.79 3.94 1.79c1.3 0 2.39-.4 3.26-1.2.89-.8 1.44-2.02 1.67-3.68z"/><use xlink:href="#B" x="149.39"/><path d="M750.9 200.55h-3.32v-21.14c-.8.76-1.85 1.52-3.14 2.29-1.3.76-2.46 1.33-3.49 1.71v-3.21c1.85-.87 3.48-1.93 4.86-3.17 1.39-1.24 2.37-2.44 2.95-3.61h2.14v27.13zm11.41-6.25l3.19-.29c.27 1.5.79 2.59 1.55 3.26.76.68 1.74 1.01 2.93 1.01 1.02 0 1.91-.23 2.68-.7s1.4-1.09 1.89-1.87.9-1.83 1.24-3.16a16.76 16.76 0 0 0 .5-4.05l-.02-.66c-.66 1.06-1.57 1.91-2.72 2.57s-2.39.99-3.73.99c-2.24 0-4.13-.81-5.68-2.43s-2.32-3.76-2.32-6.41c0-2.74.81-4.95 2.42-6.62s3.64-2.51 6.07-2.51c1.76 0 3.36.47 4.82 1.42s2.56 2.29 3.32 4.04 1.13 4.28 1.13 7.6c0 3.45-.38 6.2-1.12 8.25-.75 2.04-1.86 3.6-3.35 4.67-1.48 1.07-3.21 1.6-5.21 1.6-2.11 0-3.84-.59-5.18-1.76-1.34-1.18-2.14-2.83-2.41-4.95zm13.58-11.92c0-1.9-.51-3.42-1.52-4.53-1.01-1.12-2.23-1.68-3.66-1.68-1.47 0-2.76.6-3.85 1.81-1.09 1.2-1.64 2.76-1.64 4.68 0 1.72.52 3.12 1.56 4.19s2.32 1.61 3.84 1.61c1.54 0 2.8-.54 3.79-1.61.98-1.08 1.48-2.57 1.48-4.47zm9.55-5.31v-3.19h17.49v2.58c-1.72 1.83-3.43 4.26-5.11 7.3-1.69 3.04-2.99 6.16-3.92 9.36-.66 2.26-1.09 4.74-1.27 7.43h-3.41c.04-2.12.46-4.69 1.25-7.7a40.28 40.28 0 0 1 3.44-8.71c1.49-2.79 3.08-5.15 4.76-7.07h-13.23zm23.2 16.34l3.32-.44c.38 1.88 1.03 3.23 1.95 4.06.91.83 2.03 1.24 3.34 1.24 1.56 0 2.88-.54 3.95-1.62s1.61-2.42 1.61-4.02c0-1.52-.5-2.78-1.49-3.77s-2.26-1.48-3.8-1.48c-.62 0-1.41.12-2.34.37l.37-2.91c.22.03.4.04.53.04 1.41 0 2.68-.37 3.82-1.11 1.13-.74 1.69-1.87 1.69-3.41 0-1.22-.41-2.22-1.23-3.02s-1.89-1.2-3.19-1.2c-1.29 0-2.37.4-3.23 1.22-.86.81-1.41 2.03-1.66 3.65l-3.32-.59c.41-2.22 1.33-3.95 2.76-5.17 1.44-1.22 3.22-1.83 5.36-1.83 1.48 0 2.83.32 4.07.95s2.19 1.5 2.85 2.59.99 2.25.99 3.48c0 1.17-.31 2.23-.94 3.19s-1.55 1.72-2.78 2.29c1.6.37 2.84 1.13 3.72 2.29s1.33 2.61 1.33 4.36c0 2.36-.86 4.36-2.58 6s-3.89 2.46-6.52 2.46c-2.37 0-4.34-.71-5.9-2.12-1.57-1.42-2.46-3.25-2.68-5.5z"/><defs ><path id="B" d="M567.03 194.24l3.43.42c-.54 2-1.54 3.56-3 4.66-1.46 1.11-3.33 1.66-5.6 1.66-2.86 0-5.13-.88-6.81-2.64s-2.51-4.24-2.51-7.42c0-3.29.85-5.85 2.54-7.67 1.7-1.82 3.89-2.73 6.6-2.73 2.62 0 4.76.89 6.41 2.67 1.66 1.78 2.49 4.29 2.49 7.52l-.02.88h-14.59c.12 2.15.73 3.8 1.82 4.94s2.46 1.71 4.09 1.71c1.22 0 2.25-.32 3.11-.96.85-.62 1.53-1.64 2.04-3.04zm-10.89-5.36h10.93c-.15-1.65-.57-2.88-1.25-3.7-1.06-1.28-2.43-1.92-4.11-1.92-1.52 0-2.8.51-3.84 1.53-1.05 1.02-1.62 2.38-1.73 4.09z"/><path id="C" d="M577.03 200.55v-19.57h2.99v2.78c1.44-2.15 3.51-3.22 6.23-3.22 1.18 0 2.26.21 3.25.64.99.42 1.73.98 2.22 1.67s.84 1.5 1.03 2.45c.12.62.18 1.69.18 3.23v12.03h-3.32v-11.9c0-1.35-.13-2.36-.39-3.03s-.71-1.2-1.37-1.6-1.43-.6-2.31-.6c-1.41 0-2.63.45-3.66 1.35s-1.54 2.6-1.54 5.1v10.69h-3.31z"/></defs></svg>