<svg xmlns="http://www.w3.org/2000/svg" height="512" viewBox="0 0 64 64" width="512" xmlns:v="https://vecta.io/nano"><path d="M31.42 34.254l2.828-2.828 14.14 14.14-2.828 2.828z" fill="#fcbc04"/><path d="M42.74 43.56l-2.9-2.9a2 2 0 0 1-.24-2.53l.53-.84-5.88-5.88-2.83 2.83L45.56 48.4l2.83-2.83-1.2-1.2a4 4 0 0 1-4.46-.81z" fill="#e59730"/><circle cx="23" cy="23" fill="#f9e109" r="20"/><path d="M16.86 27.14a20 20 0 0 1-4.64-21 20 20 0 1 0 29.56 23.7 20 20 0 0 1-24.92-2.7z" fill="#fcbc04"/><circle cx="23" cy="23" fill="#aae1f9" r="16"/><g fill="#57b7eb"><path d="M34.3 34.3a16 16 0 0 1-22.62-22.62z"/><path d="M34.3 11.7a16 16 0 0 0-22.62 0 15 15 0 0 0-1.39 1.61 16 16 0 0 1 22.4 22.4 15 15 0 0 0 1.61-1.39 16 16 0 0 0 0-22.62z"/></g><rect fill="#c4f236" height="17" rx="2" transform="matrix(.707 -.707 .707 .707 -21.95 52.99)" width="8" x="48.99" y="44.49"/><path d="M59.77 54.1a6 6 0 0 1-7.84-.52l-5.78-5.78-.6.58a2 2 0 0 0 0 2.83l9.2 9.2a2 2 0 0 0 2.83 0l2.82-2.82a2 2 0 0 0 0-2.83z" fill="#a1d51c"/><path d="M29 19h5a0 0 0 0 1 0 0 8 8 0 0 1-8 8h-2a0 0 0 0 1 0 0v-3a5 5 0 0 1 5-5zm-8 5h-2a8 8 0 0 1-8-8h5a5 5 0 0 1 5 5v3zM49 9h12v6H49z" fill="#c4f236"/><path d="M30 25h-1a3 3 0 0 1-3-3v-1a3.87 3.87 0 0 1 .18-1.13A5 5 0 0 0 24 24v3h2a7.94 7.94 0 0 0 5.49-2.2A5.58 5.58 0 0 1 30 25zm-10-3a8 8 0 0 1-7.74-6H11a8 8 0 0 0 8 8h2v-2z" fill="#a1d51c"/><path d="M27 38.48V31h-8v7.48a16.17 16.17 0 0 0 8 0zM27 47v-4.4a20 20 0 0 1-8 0V47l-4.83 9.66A3 3 0 0 0 16.85 61h12.3a3 3 0 0 0 2.68-4.34z" fill="#c4f236"/><g fill="#7ab92d"><path d="M23 32a1 1 0 0 1-1-1 9 9 0 0 1 6.75-8.72 1 1 0 1 1 .5 1.94A7 7 0 0 0 24 31a1 1 0 0 1-1 1z"/><path d="M17.28 20.27a1 1 0 0 0-.51 1.93A7 7 0 0 1 22 29v10a16.68 16.68 0 0 0 2 0V29a9 9 0 0 0-6.72-8.73zM22 43v9a1 1 0 0 0 2 0v-9a16.35 16.35 0 0 1-2 0z"/></g><path d="M21.7 49.52a2.31 2.31 0 0 0 .3-1.12v-5.46a20.13 20.13 0 0 1-3-.35V47l-4.83 9.66A3 3 0 0 0 16.85 61h12.3a3 3 0 0 0 3-3H26.7a5.71 5.71 0 0 1-4.99-8.48zM22 31h-3v7.48a16.14 16.14 0 0 0 3 .52v-8z" fill="#a1d51c"/><path d="M30 53l-.5.13A8.2 8.2 0 0 1 23 52a8.15 8.15 0 0 0-5.88-1.25l-3 5.9A3 3 0 0 0 16.85 61h12.3a3 3 0 0 0 2.68-4.34z" fill="#f89c8d"/><path d="M26.7 58a5.72 5.72 0 0 1-5.58-6.92 8.34 8.34 0 0 0-4-.33l-3 5.9A3 3 0 0 0 16.85 61h12.3a3 3 0 0 0 3-3zM29 16a1 1 0 0 1-1-1v-3a1 1 0 0 1 1-1h16a1 1 0 0 1 0 2H30v2a1 1 0 0 1-1 1z" fill="#f8664f"/><path d="m57 20h-7a1 1 0 0 1 0-2h7a1 1 0 0 1 0 2z" fill="#57b7eb"/><path d="m55 25h-5a1 1 0 0 1 0-2h5a1 1 0 0 1 0 2z" fill="#f89c8d"/></svg>