<svg xmlns="http://www.w3.org/2000/svg" viewBox="0 0 512 512"><path d="M160 0H0v160h160V0zm-32 128H32V32h96v96zM64 64h32v32H64zM352 0v160h160V0H352zm128 128h-96V32h96v96zm-64-64h32v32h-32zM0 512h160V352H0v160zm32-128h96v96H32v-96zm32 32h32v32H64zM256 0h64v32h-64zm0 128h32V96h32V64h-96V32h-32v64h64zm-64 0h32v32h-32zm128 32h-32v32h-96v32h128zM32 288h32v-32H32v-64H0v128h32zm32-96h32v32H64zm128 128h64v-32h-32v-32h-64v-64h-32v64H96v64h32v-32h64zm96-64h32v64h-32zm0 96h-96v32h64v96h-64v32h96v-32h64v-32h-64zm-96 64h32v32h-32zm128-64h32v64h-32zm160 64h-96v96h32v-64h64zm-32 64h64v32h-64zm32-128h32v32h-32zm-96 32h32v-96h-64v32h32zm64-160h-32v-32h-32v32h-32v32h128v-32h32v-32h-64zm0 64h64v32h-64z"/></svg>