<svg xmlns="http://www.w3.org/2000/svg" viewBox="0 0 512.011 512.011" width="512" height="512" xmlns:v="https://vecta.io/nano"><path d="M120.01 241.006l-60 120 60 120c66.274 0 120-53.726 120-120s-53.725-120-120-120z" fill="#4d3d36"/><path d="M.01 361.006c0 66.274 53.726 120 120 120v-240c-66.274 0-120 53.725-120 120z" fill="#604a43"/><path d="M242.01 46.006h-167V202.25l227-6.243z" fill="#baf7ff"/><path d="M60.01 31.006v171.242h160l-100-171.242z" fill="#9bc135"/><path d="M253.51 31.006h-133.5v171.242l200.553.001z" fill="#7fab0d"/><path d="M90.01 61.006v141.242h90l-60-141.242z" fill="#fff"/><path d="M233.04 61.006H120.01v141.242l168.336.001z" fill="#baf7ff"/><path d="M120.01 301.006l-30 60 30 60c33.137 0 60-26.863 60-60s-26.863-60-60-60z" fill="#fdc54e"/><path d="M60.01 361.006c0 33.137 26.863 60 60 60v-120c-33.137 0-60 26.863-60 60z" fill="#fcdb5a"/><path d="M347.012 76.006h30v120h-30z" fill="#7d9062"/><path d="M278.774 316.006c4.062 14.3 6.238 29.406 6.238 45a164.92 164.92 0 0 1-4.3 37.5h201.3v-82.5l-101.62-60-101.62 60z" fill="#5d734f"/><path d="M482.012 241.006c0-33.084-26.916-60-60-60h-302v15c75.387 0 139.127 50.82 158.762 120h203.238v-75z" fill="#7fab0d"/><path d="M298.607 383.506a180.94 180.94 0 0 0 1.404-22.5c0-99.252-80.748-180-180-180l-20 15 20 15c82.7 0 150 67.3 150 150a150.28 150.28 0 0 1-3.908 34.092l-4.295 18.408H362.01v-30h-63.404z" fill="#555843"/><path d="M120.01 181.006c-44.326 0-86.947 16.317-120.01 45.947l20.02 22.342c27.554-24.69 63.064-38.29 99.99-38.29v-30z" fill="#5d734f"/><circle cx="429.511" cy="398.506" r="82.5" fill="#4d3d36"/><circle cx="429.511" cy="398.506" r="52.5" fill="#fdc54e"/></svg>